<?xml version="1.0" encoding="utf-8"?><svg xmlns="http://www.w3.org/2000/svg" width="280" height="250" preserveAspectRatio="xMidYMid" xmlns:xlink="http://www.w3.org/1999/xlink" style="margin-right:-2px;display:block;background-repeat-y:initial;background-repeat-x:initial;animation-play-state:paused" ><style type="text/css" style="animation-play-state:paused" >text {
    text-anchor: middle; font-size: 80px; opacity: 0;
  }</style>


<g style="transform-origin:140px 125px;transform:matrix(1, 0, 0, 1, 0, 0);animation-play-state:paused" ><g transform="translate(140,125)" style="transform:matrix(1, 0, 0, 1, 140, 125);animation-play-state:paused" ><g transform="translate(0,0)" style="transform:matrix(1, 0, 0, 1, 0, 0);animation-play-state:paused" ><g class="path" style="transform-origin:5.44px -4.5216px;transform:matrix(0.91, 0, 0, 0.91, 0, 0);animation-timing-function:linear;animation-play-state:paused;animation-name:breath-8d0825ab-d024-4587-8ffc-7fe0e83da454;animation-iteration-count:infinite;animation-fill-mode:forwards;animation-duration:1s" ><path d="M5.60-30.40L9.68-30.40L11.84-42.24L11.84-42.24Q17.76-42.24 20.64-42.72L20.64-42.72L21.68-42.96L21.68-42.96Q20.56-37.36 19.20-30.40L19.20-30.40L29.12-30.40L28.96-28.96L18.96-28.96L18.96-28.96Q14.96-8.32 14.96-4.08L14.96-4.08L14.96-4.08Q14.96-1.52 17.68-1.52L17.68-1.52L17.68-1.52Q20.40-1.52 22.64-4.96L22.64-4.96L22.64-4.96Q24.88-8.40 25.84-12.40L25.84-12.40L27.28-11.92L27.28-11.92Q24.32 0.72 15.04 0.72L15.04 0.72L15.04 0.72Q11.20 0.72 8.64-1.40L8.64-1.40L8.64-1.40Q6.08-3.52 6.08-7.32L6.08-7.32L6.08-7.32Q6.08-11.12 9.36-28.96L9.36-28.96L5.44-28.96L5.60-30.40" fill="#51cacc" stroke="none" stroke-width="none" transform="translate(-11.839996337890625,16.598397216796876)" style="transform:matrix(1, 0, 0, 1, -11.84, 16.5984);fill:rgb(81, 202, 204);animation-play-state:paused" ></path></g></g></g></g></svg>