<?xml version="1.0" encoding="utf-8"?>
<svg xmlns="http://www.w3.org/2000/svg" style="margin: auto; display: block; shape-rendering: auto; background: none;" preserveAspectRatio="xMidYMid">
<style type="text/css">
  text {
    text-anchor: middle; font-size: 46px; opacity: 0;
  }
</style>
<g style="transform-origin:54px 23px;transform:scale(1)">
<g transform="translate(54,23)">
  <g transform="translate(0,0)"><g class="path" style="transform: scale(0.91); transform-origin: -35.905px -2.0389px; animation: 1s linear -0.55s infinite normal forwards running breath-c4611bdb-77a4-41f6-a1e6-c617a9b483fb;"><path d="M3.22-17.48L5.57-17.48L6.81-24.29L6.81-24.29Q10.21-24.29 11.87-24.56L11.87-24.56L12.47-24.70L12.47-24.70Q11.82-21.48 11.04-17.48L11.04-17.48L16.74-17.48L16.65-16.65L10.90-16.65L10.90-16.65Q8.60-4.78 8.60-2.35L8.60-2.35L8.60-2.35Q8.60-0.87 10.17-0.87L10.17-0.87L10.17-0.87Q11.73-0.87 13.02-2.85L13.02-2.85L13.02-2.85Q14.31-4.83 14.86-7.13L14.86-7.13L15.69-6.85L15.69-6.85Q13.98 0.41 8.65 0.41L8.65 0.41L8.65 0.41Q6.44 0.41 4.97-0.80L4.97-0.80L4.97-0.80Q3.50-2.02 3.50-4.21L3.50-4.21L3.50-4.21Q3.50-6.39 5.38-16.65L5.38-16.65L3.13-16.65L3.22-17.48" fill="#51cacc" stroke="none" stroke-width="none" transform="translate(-45.839996337890625,10.106099739074708)" style="fill: rgb(81, 202, 204);"></path></g><g class="path" style="transform: scale(0.91); transform-origin: -18.17px 1.3661px; animation: 1s linear -0.44s infinite normal forwards running breath-c4611bdb-77a4-41f6-a1e6-c617a9b483fb;"><path d="M20.38-16.97L20.38-16.97L20.38-16.97Q19.27-16.97 18.08-15.69L18.08-15.69L17.39-16.24L17.39-16.24Q17.71-16.88 18.81-17.39L18.81-17.39L18.81-17.39Q19.92-17.89 21.25-17.89L21.25-17.89L21.25-17.89Q25.44-17.89 25.44-14.12L25.44-14.12L25.44-14.12Q25.44-12.51 24.61-8.37L24.61-8.37L24.61-8.37Q23.78-4.23 23.78-2.94L23.78-2.94L23.78-2.94Q23.78-0.97 25.67-0.97L25.67-0.97L25.67-0.97Q27.00-0.97 28.27-2.53L28.27-2.53L28.27-2.53Q29.53-4.09 30.45-6.85L30.45-6.85L32.38-17.48L32.38-17.48Q35.79-17.48 37.35-17.76L37.35-17.76L37.95-17.89L34.87-0.51L34.87-0.51Q36.25-0.64 37.17-1.79L37.17-1.79L37.86-1.24L37.86-1.24Q36.48 0.41 34.41 0.41L34.41 0.41L34.41 0.41Q32.34 0.41 31.19-0.60L31.19-0.60L31.19-0.60Q30.04-1.61 29.99-3.45L29.99-3.45L29.99-3.45Q28.06 0.41 24.29 0.41L24.29 0.41L24.29 0.41Q21.57 0.41 20.06-1.13L20.06-1.13L20.06-1.13Q18.54-2.67 18.54-5.38L18.54-5.38L18.54-5.38Q18.54-6.81 19.41-10.88L19.41-10.88L19.41-10.88Q20.29-14.95 20.38-16.97" fill="#51cacc" stroke="none" stroke-width="none" transform="translate(-45.839996337890625,10.106099739074708)" style="fill: rgb(157, 248, 113);"></path></g><g class="path" style="transform: scale(0.91); transform-origin: 4.53px -4.5939px; animation: 1s linear -0.33s infinite normal forwards running breath-c4611bdb-77a4-41f6-a1e6-c617a9b483fb;"><path d="M57.73-0.51L57.73-0.51L57.73-0.51Q58.83-0.51 60.03-1.79L60.03-1.79L60.72-1.24L60.72-1.24Q60.40-0.60 59.29-0.09L59.29-0.09L59.29-0.09Q58.19 0.41 56.86 0.41L56.86 0.41L56.86 0.41Q52.67 0.41 52.67-3.36L52.67-3.36L52.67-3.36Q52.67-4.97 53.50-9.11L53.50-9.11L53.50-9.11Q54.33-13.25 54.33-14.54L54.33-14.54L54.33-14.54Q54.33-16.51 52.44-16.51L52.44-16.51L52.44-16.51Q50.88-16.51 49.43-14.40L49.43-14.40L49.43-14.40Q47.98-12.28 47.06-8.65L47.06-8.65L45.54 0L40.02 0L45.13-28.89L45.13-28.89Q43.75-28.75 42.83-27.60L42.83-27.60L42.14-28.15L42.14-28.15Q43.52-29.81 45.61-29.81L45.61-29.81L45.61-29.81Q47.70-29.81 48.85-28.75L48.85-28.75L48.85-28.75Q50.00-27.69 50.00-25.76L50.00-25.76L50.00-25.76Q50.00-25.39 49.91-24.56L49.91-24.56L47.98-13.66L47.98-13.66Q49.86-17.89 53.82-17.89L53.82-17.89L53.82-17.89Q56.53-17.89 58.05-16.35L58.05-16.35L58.05-16.35Q59.57-14.81 59.57-12.10L59.57-12.10L59.57-12.10Q59.57-10.67 58.70-6.60L58.70-6.60L58.70-6.60Q57.82-2.53 57.73-0.51" fill="#51cacc" stroke="none" stroke-width="none" transform="translate(-45.839996337890625,10.106099739074708)" style="fill: rgb(224, 255, 119);"></path></g><g class="path" style="transform: scale(0.91); transform-origin: 21.715px 1.3661px; animation: 1s linear -0.22s infinite normal forwards running breath-c4611bdb-77a4-41f6-a1e6-c617a9b483fb;"><path d="M71.39-1.24L71.39-1.24Q70.01 0.41 67.94 0.41L67.94 0.41L67.94 0.41Q65.87 0.41 64.70-0.64L64.70-0.64L64.70-0.64Q63.53-1.70 63.53-3.40L63.53-3.40L63.53-3.40Q63.53-4.00 64.26-8.42L64.26-8.42L65.78-16.65L63.85-16.65L63.94-17.48L65.92-17.48L65.92-17.48Q69.32-17.48 70.93-17.76L70.93-17.76L71.58-17.89L68.40-0.51L68.40-0.51Q69.78-0.64 70.70-1.79L70.70-1.79L71.39-1.24" fill="#51cacc" stroke="none" stroke-width="none" transform="translate(-45.839996337890625,10.106099739074708)" style="fill: rgb(222, 157, 214);"></path></g><g class="path" style="transform: scale(0.91); transform-origin: 23.875px -14.5689px; animation: 1s linear -0.11s infinite normal forwards running breath-c4611bdb-77a4-41f6-a1e6-c617a9b483fb;"><path d="M67.34-22.31L67.34-22.31L67.34-22.31Q66.38-23.28 66.38-24.66L66.38-24.66L66.38-24.66Q66.38-26.04 67.34-27.02L67.34-27.02L67.34-27.02Q68.31-28.01 69.69-28.01L69.69-28.01L69.69-28.01Q71.07-28.01 72.06-27.02L72.06-27.02L72.06-27.02Q73.05-26.04 73.05-24.66L73.05-24.66L73.05-24.66Q73.05-23.28 72.06-22.31L72.06-22.31L72.06-22.31Q71.07-21.34 69.69-21.34L69.69-21.34L69.69-21.34Q68.31-21.34 67.34-22.31" fill="#51cacc" stroke="none" stroke-width="none" transform="translate(-45.839996337890625,10.106099739074708)" style="fill: rgb(255, 112, 142);"></path></g><g class="path" style="transform: scale(0.91); transform-origin: 38.64px 1.3661px; animation: 1s linear 0s infinite normal forwards running breath-c4611bdb-77a4-41f6-a1e6-c617a9b483fb;"><path d="M91.82-0.51L91.82-0.51L91.82-0.51Q92.92-0.51 94.12-1.79L94.12-1.79L94.81-1.24L94.81-1.24Q94.48-0.60 93.38-0.09L93.38-0.09L93.38-0.09Q92.28 0.41 90.94 0.41L90.94 0.41L90.94 0.41Q86.76 0.41 86.76-3.36L86.76-3.36L86.76-3.36Q86.76-4.97 87.58-9.11L87.58-9.11L87.58-9.11Q88.41-13.25 88.41-14.54L88.41-14.54L88.41-14.54Q88.41-16.51 86.53-16.51L86.53-16.51L86.53-16.51Q85.01-16.51 83.60-14.54L83.60-14.54L83.60-14.54Q82.20-12.56 81.28-9.11L81.28-9.11L79.72-0.51L79.72-0.51Q81.14-0.64 82.06-1.79L82.06-1.79L82.75-1.24L82.75-1.24Q81.37 0.41 79.30 0.41L79.30 0.41L79.30 0.41Q77.23 0.41 76.06-0.64L76.06-0.64L76.06-0.64Q74.89-1.70 74.89-3.40L74.89-3.40L74.89-3.40Q74.89-4.05 75.62-8.46L75.62-8.46L77.14-16.97L77.14-16.97Q75.76-16.84 74.84-15.69L74.84-15.69L74.15-16.24L74.15-16.24Q75.53-17.89 77.63-17.89L77.63-17.89L77.63-17.89Q79.72-17.89 80.87-16.84L80.87-16.84L80.87-16.84Q82.02-15.78 82.02-13.85L82.02-13.85L82.02-13.57L82.02-13.57Q83.90-17.89 87.91-17.89L87.91-17.89L87.91-17.89Q90.62-17.89 92.14-16.35L92.14-16.35L92.14-16.35Q93.66-14.81 93.66-12.10L93.66-12.10L93.66-12.10Q93.66-10.67 92.78-6.60L92.78-6.60L92.78-6.60Q91.91-2.53 91.82-0.51" fill="#51cacc" stroke="none" stroke-width="none" transform="translate(-45.839996337890625,10.106099739074708)" style="fill: rgb(81, 202, 204);"></path></g></g>
</g>
</g>
<style id="breath-c4611bdb-77a4-41f6-a1e6-c617a9b483fb" data-anikit="">@keyframes breath-c4611bdb-77a4-41f6-a1e6-c617a9b483fb
{
  0% {
    animation-timing-function: cubic-bezier(0.9647,0.2413,-0.0705,0.7911);
    transform: scale(0.9099999999999999);
  }
  51% {
    animation-timing-function: cubic-bezier(0.9226,0.2631,-0.0308,0.7628);
    transform: scale(1.02994);
  }
  100% {
    transform: scale(0.9099999999999999);
  }
}</style></svg>